<svg width="1398" height="241" viewBox="0 0 1398 241" fill="none" xmlns="http://www.w3.org/2000/svg">
<path d="M202.098 0L231.816 0L29.718 240.267H0L202.098 0Z" fill="black"/>
<path d="M284.725 85.9253H172.284L244.559 0H357L320.862 42.9627H290.737L307.51 23.0215H255.321L221.774 62.9038H273.963H304.089L284.725 85.9253Z" fill="black"/>
<path d="M205.804 181.585H93.3636L129.501 138.623L159.627 138.623L142.854 158.564H195.043L228.59 118.681H146.275L165.639 95.6599H278.079L205.804 181.585Z" fill="black"/>
<path d="M478.836 193.562C468.615 193.562 458.979 191.74 449.93 188.094C440.88 184.383 432.872 179.207 425.906 172.566C419.005 165.926 413.602 158.146 409.695 149.227C405.789 140.242 403.836 130.444 403.836 119.832C403.836 109.155 405.822 99.3568 409.793 90.4375C413.764 81.4531 419.201 73.7057 426.102 67.1953C433.003 60.6198 440.945 55.5417 449.93 51.9609C458.979 48.3151 468.549 46.4922 478.641 46.4922C486.518 46.4922 494.266 47.599 501.883 49.8125C509.5 51.9609 516.368 55.1185 522.488 59.2852L513.504 80.5742C509.533 76.7331 504.454 73.7383 498.27 71.5898C492.15 69.4414 485.737 68.3672 479.031 68.3672C472.391 68.3672 466.01 69.6042 459.891 72.0781C453.771 74.487 448.302 77.9701 443.484 82.5273C438.667 87.0195 434.826 92.4232 431.961 98.7383C429.161 104.988 427.762 111.954 427.762 119.637C427.762 127.059 429.096 133.927 431.766 140.242C434.5 146.557 438.243 152.091 442.996 156.844C447.749 161.531 453.25 165.177 459.5 167.781C465.75 170.385 472.391 171.688 479.422 171.688C483.654 171.688 487.918 171.199 492.215 170.223C496.577 169.246 500.646 167.814 504.422 165.926C508.198 163.973 511.355 161.629 513.895 158.895L522.879 180.184C516.824 184.415 509.923 187.703 502.176 190.047C494.428 192.391 486.648 193.562 478.836 193.562ZM615.555 192V178.133H612.723L616.727 172.664V108.504L612.43 101.277H615.555V87.8008H637.918V192H615.555ZM580.984 193.562C571.609 193.562 563.211 191.284 555.789 186.727C548.432 182.104 542.605 175.757 538.309 167.684C534.012 159.546 531.896 150.236 531.961 139.754C531.896 129.272 534.044 120.027 538.406 112.02C542.768 103.947 548.693 97.6315 556.18 93.0742C563.667 88.5169 572.098 86.2383 581.473 86.2383C590.652 86.2383 598.66 88.4844 605.496 92.9766C612.397 97.4688 617.736 103.751 621.512 111.824C625.353 119.897 627.273 129.207 627.273 139.754C627.273 149.65 625.418 158.667 621.707 166.805C618.061 174.943 612.788 181.453 605.887 186.336C598.986 191.154 590.685 193.562 580.984 193.562ZM585.477 173.152C591.206 173.087 596.349 171.688 600.906 168.953C605.529 166.219 609.174 162.378 611.844 157.43C614.578 152.417 615.945 146.59 615.945 139.949C615.945 133.309 614.611 127.514 611.941 122.566C609.337 117.553 605.757 113.68 601.199 110.945C596.642 108.146 591.434 106.746 585.574 106.746C579.715 106.746 574.441 108.178 569.754 111.043C565.132 113.842 561.453 117.749 558.719 122.762C556.049 127.71 554.715 133.374 554.715 139.754C554.715 146.004 556.017 151.668 558.621 156.746C561.225 161.759 564.839 165.73 569.461 168.66C574.083 171.59 579.422 173.087 585.477 173.152ZM676.98 192V55.8672H700.027V192H676.98ZM653.934 106.844V87.8008H722.977V106.844H653.934ZM783.914 193.562C773.367 193.562 764.155 191.316 756.277 186.824C748.4 182.267 742.247 175.952 737.82 167.879C733.393 159.806 731.18 150.496 731.18 139.949C731.18 129.012 733.393 119.539 737.82 111.531C742.247 103.523 748.204 97.3385 755.691 92.9766C763.178 88.5495 771.479 86.3359 780.594 86.3359C789.318 86.3359 797.195 88.3542 804.227 92.3906C811.323 96.4271 816.954 102.059 821.121 109.285C825.288 116.447 827.371 124.845 827.371 134.48C827.371 136.954 827.241 139.266 826.98 141.414C826.72 143.562 826.395 145.711 826.004 147.859H748.465V131.551H805.789C805.789 126.603 804.747 122.208 802.664 118.367C800.581 114.461 797.651 111.401 793.875 109.188C790.099 106.909 785.672 105.77 780.594 105.77C774.865 105.77 769.852 107.202 765.555 110.066C761.323 112.866 758.003 116.805 755.594 121.883C753.25 126.896 752.078 132.755 752.078 139.461C752.078 146.297 753.348 152.319 755.887 157.527C758.491 162.736 762.137 166.805 766.824 169.734C771.577 172.664 777.208 174.129 783.719 174.129C787.43 174.129 790.945 173.673 794.266 172.762C797.586 171.85 800.613 170.678 803.348 169.246C806.082 167.749 808.426 166.186 810.379 164.559L818.289 183.504C814.188 186.434 809.142 188.842 803.152 190.73C797.228 192.618 790.815 193.562 783.914 193.562ZM893.582 234.48C887.983 234.48 882.612 233.992 877.469 233.016C872.326 232.039 867.605 230.737 863.309 229.109C859.077 227.547 855.496 225.789 852.566 223.836L860.672 204.891C864.839 207.755 869.689 210.066 875.223 211.824C880.757 213.647 886.453 214.559 892.312 214.559C895.893 214.559 899.637 214.103 903.543 213.191C907.449 212.345 911.095 210.913 914.48 208.895C917.866 206.876 920.6 204.207 922.684 200.887C924.767 197.632 925.809 193.595 925.809 188.777V175.887H922.586L926.59 168.074V110.262L922.684 100.594H925.809V87.8008H948.172V187.605C948.172 195.353 946.772 202.156 943.973 208.016C941.173 213.94 937.299 218.855 932.352 222.762C927.404 226.668 921.609 229.598 914.969 231.551C908.393 233.504 901.264 234.48 893.582 234.48ZM891.336 190.73C881.961 190.73 873.562 188.484 866.141 183.992C858.784 179.5 852.957 173.315 848.66 165.438C844.363 157.495 842.247 148.413 842.312 138.191C842.247 127.97 844.396 118.921 848.758 111.043C853.12 103.165 859.044 97.013 866.531 92.5859C874.018 88.1589 882.449 85.9453 891.824 85.9453C901.004 85.9453 909.012 88.1589 915.848 92.5859C922.749 96.9479 928.087 103.068 931.863 110.945C935.704 118.758 937.625 127.84 937.625 138.191C937.625 147.827 935.77 156.616 932.059 164.559C928.413 172.501 923.139 178.849 916.238 183.602C909.337 188.354 901.036 190.73 891.336 190.73ZM895.828 170.809C901.557 170.809 906.701 169.474 911.258 166.805C915.88 164.07 919.526 160.294 922.195 155.477C924.93 150.594 926.297 144.865 926.297 138.289C926.297 131.909 924.962 126.277 922.293 121.395C919.689 116.512 916.108 112.703 911.551 109.969C906.993 107.234 901.785 105.867 895.926 105.867C890.066 105.867 884.793 107.267 880.105 110.066C875.483 112.801 871.805 116.609 869.07 121.492C866.401 126.375 865.066 131.941 865.066 138.191C865.066 144.311 866.368 149.845 868.973 154.793C871.577 159.676 875.19 163.582 879.812 166.512C884.435 169.376 889.773 170.809 895.828 170.809ZM1019.27 193.562C1011.71 193.562 1004.65 192.195 998.074 189.461C991.564 186.661 985.835 182.788 980.887 177.84C975.939 172.892 972.065 167.163 969.266 160.652C966.531 154.077 965.164 147.046 965.164 139.559C965.164 132.072 966.531 125.105 969.266 118.66C972.065 112.215 975.939 106.551 980.887 101.668C985.835 96.7852 991.564 93.0091 998.074 90.3398C1004.65 87.6055 1011.71 86.2383 1019.27 86.2383C1029.29 86.2383 1038.41 88.6146 1046.61 93.3672C1054.81 98.0547 1061.36 104.435 1066.24 112.508C1071.12 120.581 1073.56 129.598 1073.56 139.559C1073.56 147.046 1072.16 154.077 1069.36 160.652C1066.56 167.163 1062.66 172.892 1057.64 177.84C1052.7 182.788 1046.93 186.661 1040.36 189.461C1033.85 192.195 1026.82 193.562 1019.27 193.562ZM1019.27 173.152C1025.19 173.152 1030.56 171.622 1035.38 168.562C1040.26 165.503 1044.1 161.434 1046.9 156.355C1049.77 151.212 1051.2 145.516 1051.2 139.266C1051.2 133.146 1049.77 127.612 1046.9 122.664C1044.04 117.716 1040.2 113.81 1035.38 110.945C1030.56 108.081 1025.19 106.648 1019.27 106.648C1013.28 106.648 1007.87 108.113 1003.05 111.043C998.302 113.973 994.526 117.911 991.727 122.859C988.927 127.807 987.527 133.341 987.527 139.461C987.527 145.646 988.927 151.31 991.727 156.453C994.526 161.531 998.302 165.6 1003.05 168.66C1007.87 171.655 1013.28 173.152 1019.27 173.152ZM1090.65 192V87.8008H1113.31V103.133H1116.24L1109.89 109.969C1111.65 106.193 1114.12 102.482 1117.31 98.8359C1120.5 95.1901 1124.44 92.1953 1129.13 89.8516C1133.82 87.4427 1139.22 86.2383 1145.34 86.2383C1147.81 86.2383 1150.06 86.4336 1152.08 86.8242C1154.16 87.1497 1155.63 87.5404 1156.47 87.9961L1147.2 110.066C1146.67 109.806 1145.67 109.546 1144.17 109.285C1142.74 109.025 1141.08 108.895 1139.19 108.895C1136.45 108.895 1133.59 109.448 1130.59 110.555C1127.66 111.661 1124.9 113.322 1122.29 115.535C1119.75 117.749 1117.67 120.516 1116.04 123.836C1114.48 127.091 1113.7 130.867 1113.7 135.164V192H1090.65ZM1189.52 234.578C1185.55 234.578 1181.71 234.155 1178 233.309C1174.29 232.462 1171.46 231.616 1169.5 230.77L1177.8 211.336C1179.63 212.247 1181.55 212.964 1183.57 213.484C1185.65 214.07 1187.54 214.363 1189.23 214.363C1192.94 214.428 1195.94 213.615 1198.21 211.922C1200.49 210.229 1202.25 208.211 1203.49 205.867C1204.73 203.589 1205.64 201.57 1206.22 199.812L1211.2 184.09L1210.42 196.883L1165.4 87.8008H1190.01L1212.38 148.738L1219.02 167.391H1219.8L1225.75 148.738L1246.26 87.8008H1270.48L1226.05 205.184C1225.07 207.853 1223.77 210.848 1222.14 214.168C1220.51 217.553 1218.36 220.776 1215.7 223.836C1213.03 226.961 1209.58 229.533 1205.34 231.551C1201.11 233.569 1195.84 234.578 1189.52 234.578ZM1339.42 193.562C1332.26 193.562 1325.52 192.358 1319.2 189.949C1312.89 187.54 1307.35 184.188 1302.6 179.891C1297.91 175.529 1294.37 170.483 1291.96 164.754L1313.83 155.281C1315.2 158.536 1317.12 161.466 1319.59 164.07C1322.13 166.609 1325.1 168.628 1328.48 170.125C1331.87 171.622 1335.61 172.371 1339.71 172.371C1344.66 172.371 1349.05 171.264 1352.89 169.051C1356.8 166.772 1359.83 163.647 1361.98 159.676C1364.19 155.704 1365.3 151.18 1365.3 146.102C1365.3 141.089 1364.19 136.661 1361.98 132.82C1359.76 128.914 1356.7 125.887 1352.8 123.738C1348.96 121.525 1344.5 120.418 1339.42 120.418C1334.67 120.418 1330.24 121.329 1326.14 123.152C1322.04 124.91 1319.17 127.124 1317.54 129.793L1299.28 126.863V48.0547H1377.02V69.3438H1322.04V117.488L1316.76 109.285C1318.85 107.007 1322.23 104.988 1326.92 103.23C1331.67 101.408 1336.88 100.496 1342.54 100.496C1350.62 100.496 1358.1 102.449 1365 106.355C1371.97 110.262 1377.57 115.698 1381.8 122.664C1386.03 129.565 1388.15 137.638 1388.15 146.883C1388.15 156.193 1385.97 164.363 1381.61 171.395C1377.24 178.361 1371.38 183.797 1364.03 187.703C1356.67 191.609 1348.47 193.562 1339.42 193.562Z" fill="black"/>
</svg>
